<svg width="191" height="175" viewBox="0 0 191 175" fill="none" xmlns="http://www.w3.org/2000/svg">
<path d="M83.4194 0.896967C85.228 1.02844 87.1357 1.15126 88.9526 1.37858C90.9678 1.58857 92.7931 1.91174 94.5865 3.01038C96.4789 4.10033 98.536 4.78958 100.511 5.67916C100.924 5.83618 101.255 6.19356 101.676 6.44642C101.577 6.45509 101.486 6.55961 101.288 6.57695C101.553 7.3264 101.819 8.07584 102.183 8.81663C103.268 10.9431 104.732 12.8432 105.329 15.1089C107.935 24.3459 105.848 32.4483 98.0207 38.8316C96.437 40.1292 94.8449 41.3309 93.0127 42.0707C90.1159 43.1935 87.1687 43.7411 83.9311 43.2518C79.9915 42.7273 76.151 42.1941 73.1991 39.2652C72.5459 38.6463 71.7853 37.9402 71.421 37.1994C71.065 36.5545 70.9811 35.596 70.914 34.8293C70.6891 33.4002 70.5633 31.9625 70.4375 30.5248C70.3033 28.9912 70.1691 27.4576 70.134 25.9154C70.1408 24.8524 70.5607 23.9464 71.4928 23.1887C71.8639 22.8665 71.7968 22.0997 71.8456 21.516C71.8356 20.2613 71.6275 19.0239 71.6176 17.7692C71.6411 16.8979 72.0778 16.1836 73.1509 15.8965C73.5472 15.8619 74.0091 15.4351 74.083 15.1389C74.5684 13.8409 74.8557 12.5602 75.242 11.2708C75.1346 11.1836 75.0355 11.1923 74.928 11.1051C73.9876 11.7669 73.0471 12.4287 72.1067 13.0905C71.9992 13.0033 71.9001 13.0119 71.7926 12.9248C72.0228 12.132 72.1538 11.3479 72.384 10.5551C73.5766 7.07032 75.7364 4.37019 79.1858 2.71619C80.143 2.24609 81.0835 1.58428 82.0323 1.01835C82.4287 0.983669 82.924 0.940319 83.4194 0.896967ZM86.6099 39.637C86.6182 39.7328 86.7173 39.7241 86.7257 39.82C88.4672 39.1847 90.3329 38.8283 91.8427 37.8269C94.4911 36.1464 96.362 33.5681 97.7124 30.7457C97.9677 30.2404 97.8015 29.4823 97.7428 28.8114C97.2726 29.1423 96.6042 29.4905 96.2498 30.0044C94.6677 32.4608 92.5315 34.2897 90.1804 35.9442C89.6194 36.3796 88.8268 36.4489 88.15 36.7013C86.5899 37.1276 85.1289 37.5452 83.5772 38.0673C83.2884 38.1892 83.1238 38.5899 82.8433 38.8076C83.1573 38.9733 83.4881 39.3307 83.7853 39.3046C84.7106 39.61 85.6107 39.6278 86.6099 39.637ZM87.0156 10.0473C86.9165 10.056 86.8175 10.0647 86.6193 10.082C86.646 11.5284 86.6728 12.9748 86.7986 14.4125C86.8657 15.1793 86.9412 16.0419 88.2376 16.0251C88.5348 15.999 88.7749 16.461 89.1057 16.8183C89.329 17.0885 89.5523 17.3587 89.8915 17.812C90.5803 14.2747 88.7938 12.1131 87.0156 10.0473ZM101.201 21.5548C100.969 21.1888 100.845 20.9099 100.63 20.7355C100.35 20.9532 100.069 21.1709 99.987 21.3713C99.51 22.7652 99.1404 24.2463 98.7624 25.6315C98.6885 25.9277 99.0277 26.381 99.1603 26.7557C99.5399 26.5293 100.118 26.2856 100.183 25.8935C100.66 24.4996 100.931 23.0272 101.201 21.5548ZM104.234 23.1245C103.038 24.2915 102.505 27.3322 103.325 28.7092C104.447 27.8384 105.045 24.4057 104.234 23.1245Z" fill="#FFCCCC"/>
<path d="M0.817466 72.8577C1.04142 70.9005 1.1589 68.8557 1.38285 66.8985C2.06603 62.2854 3.89512 58.347 7.26234 55.0491C8.72185 53.6619 8.70502 53.4696 8.48918 52.1322C10.7108 51.5503 12.9492 51.1606 15.0476 50.2988C19.1545 48.68 23.2674 49.3858 27.3802 50.0915C28.1814 50.2152 28.9267 50.8281 29.5571 51.2574C29.9746 51.5115 30.4089 51.9579 30.8347 52.3081C34.6171 54.8835 36.22 58.5216 36.5089 62.9528C36.5342 63.2412 36.4529 63.4421 36.3073 64.0361C35.3323 63.0558 34.5701 62.2505 33.808 61.4453C33.71 61.4539 33.6119 61.4625 33.5223 61.5672C33.6401 62.9132 33.7494 64.1631 33.8672 65.5091C33.9009 65.8936 34.2371 66.3486 34.6462 66.5066C35.9798 67.068 36.1704 68.117 35.8791 69.3051C35.6691 70.2923 35.361 71.288 34.9549 72.2924C34.63 73.0959 34.7785 73.6641 35.238 74.399C35.706 75.2299 36.003 76.3665 35.793 77.3537C35.625 78.8216 34.9668 80.3324 34.6027 81.8174C34.2302 83.2063 33.9642 84.6828 33.5917 86.0717C33.4461 86.6658 33.2108 87.3645 32.7542 87.792C30.4795 90.0255 27.7621 91.7165 24.5011 91.7113C21.5426 91.7764 18.5504 91.4569 15.5751 91.3298C15.379 91.3469 15.0764 91.2766 14.8719 91.1976C12.482 89.8566 9.742 89.0307 7.87314 86.8691C4.69301 83.2722 2.07596 79.3354 0.968908 74.5883C0.952081 74.396 0.739144 74.2209 0.73073 74.1247C0.87636 73.5307 0.85112 73.2423 0.817466 72.8577ZM21.5898 87.8002C21.7607 87.4946 21.9316 87.189 22.0044 86.892C21.5954 86.734 21.0967 86.6808 20.7857 86.5142C19.6566 86.0317 18.6984 85.2437 17.4881 84.9621C15.7706 84.5311 14.5995 83.5679 13.6973 82.2905C12.2374 80.2869 11.0634 78.1614 9.70162 76.1492C9.47186 75.7818 9.06281 75.6238 8.64535 75.3697C8.48289 75.7715 8.32044 76.1732 8.26445 76.6625C8.19164 76.9595 8.31493 77.2394 8.42981 77.4231C9.16117 79.006 9.79448 80.5976 10.6239 82.172C12.406 85.6006 15.3282 87.3793 19.1301 87.9185C19.9145 87.8499 20.6989 87.7812 21.5898 87.8002ZM22.6518 58.1588C19.5506 59.9803 17.6626 63.2457 18.338 65.3179C18.705 64.9952 18.9739 64.681 19.2512 64.463C19.5286 64.245 19.9936 63.9136 20.1981 63.9926C21.0078 64.2124 21.2599 63.7059 21.4139 63.208C21.9573 61.5135 22.313 59.9323 22.6518 58.1588ZM7.1681 66.3923C6.37816 67.5271 6.13478 71.5205 6.79883 72.3343C6.91371 72.518 7.42923 72.7635 7.62534 72.7464C7.81303 72.633 8.07354 72.2227 8.0483 71.9343C7.91369 70.396 7.77066 68.7616 7.63605 67.2233C7.70886 66.9262 7.39787 66.7597 7.1681 66.3923ZM3.19052 74.0064C4.28305 72.9419 4.28274 69.5512 3.29929 68.4747C2.19835 69.4429 2.20706 72.9299 3.19052 74.0064Z" fill="#FFCCCC"/>
<path d="M190.232 50.7766C190.197 51.4619 190.17 52.2439 190.041 52.9374C189.721 54.7196 189.307 56.5101 188.987 58.2923C188.857 58.9859 189.028 59.8481 188.993 60.5333C189.01 60.7268 188.932 60.9285 188.941 61.0252C188.855 61.1302 188.769 61.2351 188.691 61.4368C184.686 65.6856 180.451 69.4673 174.57 70.7616C170.183 71.7302 163.552 68.802 161.291 64.7117C160.846 63.971 160.495 63.2221 160.058 62.5781C160.144 62.4731 160.23 62.3681 160.221 62.2714C161.208 62.6724 162.289 63.0651 163.284 63.5628C163.114 61.6284 161.529 59.818 159.779 59.3865C159.289 59.2343 158.672 58.7036 158.441 58.2366C157.953 57.0123 157.646 55.6748 157.433 54.329C157.262 53.4668 157.117 52.8948 156.328 52.574C155.736 52.3334 155.102 51.6093 154.957 51.0372C154.444 49.5228 154.119 47.9919 153.795 46.4609C153.359 44.7448 153.018 43.0204 152.677 41.2961C152.523 40.6273 152.542 39.7486 152.774 39.1435C153.834 36.0296 155.605 33.4382 158.619 32.0049C161.084 30.8146 163.668 29.9063 166.142 28.8127C166.322 28.6995 166.511 28.683 166.7 28.6664C169.111 29.0402 171.627 28.4302 173.994 29.3925C178.232 31.0683 181.954 33.3739 185.108 36.8013C187.423 39.3276 188.268 42.4696 189.209 45.6035C189.482 46.5541 189.756 47.5047 190.029 48.4554C190.097 49.2291 190.164 50.0028 190.232 50.7766ZM167.086 35.2597C169.293 34.3844 171.103 35.493 172.998 36.4966C174.697 37.42 176.231 38.6501 177.844 39.6785C178.247 39.9356 178.727 39.991 179.114 40.0547C178.977 39.5794 179.029 39.0875 178.798 38.6204C178.575 38.2501 178.249 37.7913 177.941 37.5259C176.106 36.1272 174.262 34.6317 172.255 33.443C169.348 31.7482 166.274 32.5045 163.424 33.6311C163.149 33.7526 162.994 34.156 162.736 34.4709C163.036 34.6396 163.353 35.0017 163.739 35.0653C164.795 35.1679 165.842 35.1737 167.086 35.2597ZM175.338 53.4444C174.642 54.1875 174.04 54.9224 173.524 55.5522C173.438 55.6572 173.266 55.8672 173.283 56.0606C173.624 57.785 173.974 59.6061 174.315 61.3305C174.41 61.3222 174.599 61.3057 174.693 61.2974C175.709 58.7721 176.819 56.2385 175.338 53.4444ZM184.538 46.5969C183.75 45.204 182.946 43.6176 182.055 42.1363C181.943 41.9511 181.369 41.9039 181.085 41.9287C180.991 41.937 180.758 42.5421 180.861 42.6305C181.76 44.2086 182.651 45.69 183.645 47.2598C183.748 47.3483 184.04 47.4202 184.228 47.4037C184.306 47.202 184.383 47.0003 184.538 46.5969ZM186.687 43.9724C187.23 42.5605 185.603 39.1944 184.247 38.9232C184.022 40.6972 185.306 43.4111 186.687 43.9724Z" fill="#FFCCCC"/>
<path d="M119.896 114.766C120.392 113.811 120.783 112.763 121.278 111.807C121.374 111.799 121.566 111.782 121.662 111.774C121.845 112.771 122.221 113.752 122.3 114.657C122.617 118.278 121.644 121.506 119.801 124.708C117.462 128.865 113.473 129.62 109.721 130.86C107.744 131.439 105.41 131.238 103.285 131.221C102.03 131.229 100.672 131.145 99.4085 131.053C98.9207 130.995 98.3459 131.045 98.5629 130.215C98.5541 130.114 98.3361 129.829 98.1269 129.645C97.8131 129.368 97.4993 129.092 97.1943 128.916C90.711 125.429 87.4829 119.427 85.5255 112.503C84.8 109.729 85.1372 106.963 85.7705 104.272C86.3345 101.891 87.09 99.4942 88.046 97.1806C89.7409 93.3835 92.4818 90.5083 96.304 88.9576C98.176 88.287 100.039 87.5158 101.929 87.0463C104.48 86.4176 106.928 86.8116 109.42 87.7084C111.023 88.379 112.348 89.1753 113.003 91.1451C113.3 92.3354 114.355 93.3581 115.122 94.4058C116.325 96.0236 117.337 97.6581 117.714 99.7537C117.758 100.257 117.906 100.852 117.654 101.279C117.063 102.243 117.508 102.914 118.057 103.677C119.034 104.909 119.915 106.149 119.96 107.767C119.995 108.169 119.856 108.79 119.595 109.117C118.786 109.796 118.673 110.718 118.944 111.606C119.137 112.704 119.416 113.693 119.705 114.783C119.705 114.783 119.801 114.775 119.896 114.766ZM91.2684 106.426C91.4952 106.812 91.8354 107.39 92.1756 107.969C92.4102 107.34 92.8452 106.795 92.984 106.175C93.3993 103.199 94.407 100.374 95.7286 97.826C96.0589 97.1889 96.5985 96.7363 97.1381 96.2836C98.2085 95.2778 99.3747 94.2635 100.436 93.157C100.706 92.9307 100.662 92.4278 100.731 92.1176C100.339 92.0506 99.9386 91.8829 99.66 92.0087C97.1263 92.8385 94.8369 94.2552 93.5065 96.7028C91.7236 99.4941 91.3347 102.772 91.2684 106.426ZM104.106 115.236C104.535 117.935 107.595 120.911 110.217 121.087C109.51 119.628 108.812 118.27 108.018 116.921C107.669 116.242 107.224 115.571 106.31 116.158C106.032 116.284 105.518 115.923 105.126 115.856C104.821 115.68 104.516 115.504 104.106 115.236ZM92.9854 117.223C93.0812 117.214 93.177 117.206 93.3686 117.189C93.438 116.879 93.6032 116.56 93.5856 116.359C93.2444 114.666 93.0077 113.065 92.5707 111.38C92.5443 111.078 92.0477 110.919 91.8297 110.634C91.5687 110.961 91.2119 111.296 91.2383 111.598C91.4143 113.61 91.9736 115.588 92.9854 117.223ZM87.3965 110.718C86.6575 112.202 87.8454 115.848 89.1348 116.242C89.6734 114.674 88.6253 111.523 87.3965 110.718Z" fill="#FFCCCC"/>
<path d="M29.2061 174.68C29.109 174.688 29.0034 174.6 29.0034 174.6C23.2094 171.03 18.425 166.692 16.0947 160.198C15.719 159.26 16.1035 158.061 16.1079 156.993C16.1003 152.431 18.0395 148.864 21.7228 146.212C21.9086 146.099 22.1916 145.977 22.6605 145.741C22.3815 147.028 22.1828 148.113 21.887 149.207C21.9926 149.295 22.0897 149.286 22.1953 149.374C23.1964 148.51 24.2059 147.742 25.1015 146.79C25.3676 146.475 25.5113 145.88 25.4776 145.495C25.2961 144.54 25.7228 143.823 26.4662 143.37C27.3955 142.803 28.4388 142.421 29.4905 142.134C30.5421 141.848 31.408 141.675 31.6785 140.293C31.8138 139.601 32.6375 138.947 33.2922 138.598C34.9901 137.867 36.8021 137.32 38.5085 136.686C39.7376 136.19 40.8696 135.702 42.0016 135.215C42.6647 134.963 43.5305 134.79 44.2274 134.923C47.5089 135.51 50.4693 136.901 52.4792 139.734C54.0415 141.928 55.8065 144.2 56.8113 146.733C57.6852 148.889 57.9044 151.394 57.8153 153.732C57.5528 157.444 56.0909 160.872 54.3291 164.23C51.714 169.021 47.3169 171.347 42.4892 173.226C39.0848 174.592 35.4653 174.617 31.9008 174.153C31.0097 174.036 30.1522 174.306 29.1808 174.391C29.1893 174.487 29.1977 174.583 29.2061 174.68ZM53.871 151.165C53.4575 148.677 52.8835 146.591 51.5492 144.767C51.3296 144.495 50.9326 144.432 50.6243 144.265C50.5525 144.563 50.2864 144.877 50.3116 145.166C50.3959 146.13 50.3831 147.101 50.7504 147.943C51.8607 150.564 51.3915 153.032 50.4281 155.446C49.883 157.047 49.0296 158.481 48.3874 160.09C48.2268 160.492 48.2774 161.07 48.2224 161.561C48.6913 161.325 49.2741 161.274 49.7345 160.943C50.0978 160.62 50.4527 160.201 50.7104 159.79C51.7159 157.857 52.7214 155.925 53.6129 153.808C53.7313 152.924 53.7357 151.856 53.871 151.165ZM25.965 160.014C29.1197 161.388 33.0222 161.241 33.8672 159.71C33.0395 159.2 32.2033 158.594 31.384 158.18C31.1813 158.101 30.8815 158.03 30.6956 158.144C29.1835 158.761 27.5743 159.387 25.965 160.014ZM41.5229 167.777C42.8914 167.755 46.3254 165.61 46.7268 164.604C46.8071 164.403 46.7649 163.921 46.6509 163.737C46.4398 163.561 45.9457 163.507 45.7682 163.717C44.4926 164.799 43.1197 165.89 41.8441 166.973C41.6666 167.182 41.6919 167.471 41.5229 167.777ZM45.4166 169.766C47.0849 169.815 49.7587 167.93 50.1264 166.539C48.7327 166.273 45.873 168.27 45.4166 169.766Z" fill="#FFCCCC"/>
</svg>
