<svg width="278" height="282" viewBox="0 0 278 282" fill="none" xmlns="http://www.w3.org/2000/svg">
<path d="M147.312 178.825C153.946 177.953 161.418 178.321 166.813 178.286C170.13 177.85 175.086 174.498 173.808 169.939C171.612 153.346 172.451 154.586 185.679 147.445C189.396 144.93 190.596 138.695 186.84 135.813C174.733 125.925 165.543 117.68 178.732 105.141C182.009 99.3081 176.975 91.8668 171.58 91.9008C144.606 92.071 142.528 91.669 149.805 65.0521C150.605 60.8954 145.17 55.5324 139.376 57.6448C110.402 68.207 95.8954 70.7895 77.0368 45.5831C73.6807 40.6222 64.969 41.0924 62.5303 48.1657C60.1309 60.636 56.8925 71.866 54.4932 84.3363C53.6934 88.493 51.6546 93.488 51.6939 98.8849C53.4112 106.762 50.9333 108.439 42.1823 103.512C30.9927 105.658 21.442 104.888 11.0914 108.275C5.29664 110.387 4.09693 116.622 8.692 120.745C19.121 128.152 29.5501 135.56 39.9791 142.967C39.54 139.648 38.2618 135.09 37.8227 131.771C25.8725 143.471 14.7614 156.412 2.81127 168.112C-1.30543 172.705 1.6508 179.744 7.04564 179.71C12.0406 181.754 44.449 186.947 46.9661 190.668C54.5174 201.83 41.7282 212.29 35.5727 221.877C31.4561 226.47 35.2513 234.75 41.8851 233.877C50.5969 233.407 82.0485 221.169 87.0434 223.213C94.9554 226.9 94.8301 266.757 98.2255 277.115C99.5037 281.674 107.816 283.282 110.693 279.527C116.849 269.939 123.843 261.592 132.916 253.646C147.344 240.27 141.949 240.304 152.417 253.108C159.529 260.951 160.807 265.51 170.797 269.599C174.953 270.403 177.031 270.805 179.909 267.05C191.859 255.35 190.502 239.997 197.058 228.331C206.491 212.91 228.149 223.568 244.733 221.388C249.289 220.113 252.167 216.359 250.888 211.8C248.332 202.682 244.937 192.324 242.38 183.207C237.707 168.29 236.507 174.525 247.258 169.06C256.769 164.433 265.92 167.282 274.593 161.415C277.07 159.738 277.87 155.582 277.431 152.263C277.353 141.469 264.846 133.66 259.372 122.9C254.299 110.062 261.772 110.43 265.849 100.44C266.249 98.3613 267.049 94.2046 264.971 93.8025C257.42 82.6405 249.108 81.0323 241.117 66.5517C238.961 55.3557 240.521 41.6452 235.487 34.2039C232.97 30.4833 230.892 30.0812 227.975 28.4389C225.058 26.7967 221.341 29.3111 218.424 27.6689C206.356 23.1781 197.205 20.3297 193.371 6.65324C192.093 2.09443 187.098 0.0500939 183.781 0.486196C175.508 4.27494 173.03 5.95126 165.597 10.9802C158.163 16.0092 166.554 28.4114 173.987 23.3824C178.943 20.0298 183.499 18.7555 188.454 15.4029C185.537 13.7606 182.62 12.1183 179.703 10.476C183.099 20.8339 184.855 34.1083 194.445 40.2753C209.869 49.7269 214.747 35.5803 219.899 59.2126C222.494 73.7272 221.694 77.8839 233.801 87.7716C238.397 91.8943 245.869 92.2623 247.987 98.0614C248.826 99.3016 240.553 103.09 240.992 106.409C239.832 118.041 239.832 118.041 245.305 128.801C251.617 140.801 264.485 141.135 253.774 151.997C247.179 158.266 239.667 152.501 232.633 155.452C210.294 165.142 234.226 203.186 238.06 216.863C239.699 213.946 242.577 210.192 244.215 207.275C229.709 209.858 203.856 192.999 190.667 205.537C174.161 218.512 194.015 266.546 160.611 238.525C155.177 233.162 156.377 226.927 145.587 226.995C128.164 227.936 105.981 259.214 98.5862 269.639C102.742 270.444 106.898 271.248 111.054 272.052C107.219 258.375 113.579 219.724 100.233 210.675C86.0474 200.385 55.874 217.182 39.2896 219.363C41.8067 223.083 43.0848 227.642 45.6019 231.363C56.3131 220.501 68.6632 206.722 71.4625 192.174C72.2623 188.017 70.5842 185.536 67.6672 183.894C52.2432 174.443 28.9857 172.098 10.684 166.401C11.9621 170.96 14.4792 174.681 14.9184 177.999C26.8685 166.299 37.9797 153.359 49.9298 141.659C52.8076 137.904 50.2905 134.183 46.5344 131.301C36.9444 125.134 26.5154 117.727 18.1643 110.721C17.3645 114.878 16.5647 119.035 15.7649 123.192C31.0712 116.452 40.2221 119.301 53.9288 120.875C57.2457 120.439 60.5626 120.003 62.2014 117.086C73.2733 98.7487 73.9161 73.0041 77.9151 52.2203C73.3593 53.4946 68.8035 54.7688 63.4086 54.8029C70.1209 64.7246 80.2285 85.0042 93.5353 88.6568C107.681 93.5496 132.46 76.7864 143.21 71.3213C141.532 68.8409 137.776 65.9584 134.02 63.0759C130.782 74.3059 125.065 87.2123 126.822 100.487C127.261 103.805 128.939 106.286 133.095 107.09C145.563 109.502 160.069 106.92 172.937 107.254C170.42 103.533 169.142 98.9741 166.625 95.2534C160.869 102.763 153.436 107.792 149.758 115.703C148.119 118.62 148.558 121.938 149.397 123.179C156.11 133.1 167.778 139.669 176.129 146.675C176.928 142.518 177.728 138.361 177.289 135.043C155.788 145.973 154.11 143.492 158.462 171.281C162.179 168.767 163.818 165.85 166.296 164.174C159.662 165.046 152.189 164.678 146.794 164.712C136.005 164.78 137.361 180.133 147.312 178.825Z" fill="#B5FBDD"/>
</svg>
